<?xml version="1.0" encoding="utf-8" standalone="no"?>
<!DOCTYPE svg PUBLIC "-//W3C//DTD SVG 1.1//EN"
  "http://www.w3.org/Graphics/SVG/1.1/DTD/svg11.dtd">
<!-- Created with matplotlib (http://matplotlib.org/) -->
<svg height="311pt" version="1.1" viewBox="0 0 771 311" width="771pt" xmlns="http://www.w3.org/2000/svg" xmlns:xlink="http://www.w3.org/1999/xlink">
 <defs>
  <style type="text/css">
*{stroke-linecap:square;stroke-linejoin:round;}
  </style>
 </defs>
 <g id="figure_1">
  <g id="patch_1">
   <path d="
M0 311.811
L771.024 311.811
L771.024 0
L0 0
z
" style="fill:#ffffff;"/>
  </g>
  <g id="axes_1">
   <g id="patch_2">
    <path clip-path="url(#pbed307b0b0)" d="
M56.6929 269.291
L453.543 269.291
L453.543 113.386
L56.6929 113.386
z
" style="fill:none;stroke:#000000;"/>
   </g>
   <g id="patch_3">
    <path clip-path="url(#pbed307b0b0)" d="
M212.598 260.787
L297.638 260.787
L297.638 198.425
L212.598 198.425
z
" style="fill:none;stroke:#000000;"/>
   </g>
   <g id="patch_4">
    <path clip-path="url(#pbed307b0b0)" d="
M78.7009 129.055
L74.264 123.351
L75.5317 122.717
L63.0314 97.7163
L63.0314 97.7163
L75.5317 122.717
L76.7994 122.083
z
" style="stroke:#000000;"/>
   </g>
   <g id="patch_5">
    <path clip-path="url(#pbed307b0b0)" d="
M91.3778 129.055
L93.2794 122.083
L94.5471 122.717
L107.047 97.7163
L107.047 97.7163
L94.5471 122.717
L95.8148 123.351
z
" style="stroke:#000000;"/>
   </g>
   <g id="patch_6">
    <path clip-path="url(#pbed307b0b0)" d="
M192.087 129.055
L187.65 123.351
L188.918 122.717
L176.417 97.7163
L176.417 97.7163
L188.918 122.717
L190.185 122.083
z
" style="stroke:#000000;"/>
   </g>
   <g id="patch_7">
    <path clip-path="url(#pbed307b0b0)" d="
M204.764 129.055
L206.665 122.083
L207.933 122.717
L220.433 97.7163
L220.433 97.7163
L207.933 122.717
L209.201 123.351
z
" style="stroke:#000000;"/>
   </g>
   <g id="patch_8">
    <path clip-path="url(#pbed307b0b0)" d="
M305.473 129.055
L301.036 123.351
L302.303 122.717
L289.803 97.7163
L289.803 97.7163
L302.303 122.717
L303.571 122.083
z
" style="stroke:#000000;"/>
   </g>
   <g id="patch_9">
    <path clip-path="url(#pbed307b0b0)" d="
M318.149 129.055
L320.051 122.083
L321.319 122.717
L333.819 97.7163
L333.819 97.7163
L321.319 122.717
L322.586 123.351
z
" style="stroke:#000000;"/>
   </g>
   <g id="patch_10">
    <path clip-path="url(#pbed307b0b0)" d="
M418.858 129.055
L414.421 123.351
L415.689 122.717
L403.189 97.7163
L403.189 97.7163
L415.689 122.717
L416.957 122.083
z
" style="stroke:#000000;"/>
   </g>
   <g id="patch_11">
    <path clip-path="url(#pbed307b0b0)" d="
M431.535 129.055
L433.437 122.083
L434.705 122.717
L447.205 97.7163
L447.205 97.7163
L434.705 122.717
L435.972 123.351
z
" style="stroke:#000000;"/>
   </g>
   <g id="patch_12">
    <path clip-path="url(#pbed307b0b0)" d="
M242.441 220.433
L235.469 218.532
L236.103 217.264
L97.7163 148.071
L97.7163 148.071
L236.103 217.264
L236.737 215.996
z
" style="stroke:#000000;"/>
   </g>
   <g id="patch_13">
    <path clip-path="url(#pbed307b0b0)" d="
M247.256 214.979
L242.146 209.869
L243.325 209.082
L206.287 153.525
L206.287 153.525
L243.325 209.082
L244.505 208.296
z
" style="stroke:#000000;"/>
   </g>
   <g id="patch_14">
    <path clip-path="url(#pbed307b0b0)" d="
M262.98 214.979
L265.732 208.296
L266.911 209.082
L303.949 153.525
L303.949 153.525
L266.911 209.082
L268.09 209.869
z
" style="stroke:#000000;"/>
   </g>
   <g id="patch_15">
    <path clip-path="url(#pbed307b0b0)" d="
M267.795 220.433
L273.5 215.996
L274.133 217.264
L412.52 148.071
L412.52 148.071
L274.133 217.264
L274.767 218.532
z
" style="stroke:#000000;"/>
   </g>
   <g id="patch_16">
    <path clip-path="url(#pbed307b0b0)" d="
M269.182 225.014
L276.038 222.728
L276.214 224.135
L467.826 200.183
L467.826 200.183
L276.214 224.135
L276.39 225.541
z
" style="stroke:#000000;"/>
   </g>
   <g id="patch_17">
    <path clip-path="url(#pbed307b0b0)" d="
M269.182 228.53
L276.39 228.002
L276.214 229.409
L467.826 253.36
L467.826 253.36
L276.214 229.409
L276.038 230.815
z
" style="stroke:#000000;"/>
   </g>
   <g id="patch_18">
    <path clip-path="url(#pbed307b0b0)" d="
M268.389 221.795
L274.527 217.98
L275.024 219.307
L468.619 146.709
L468.619 146.709
L275.024 219.307
L275.522 220.634
z
" style="stroke:#000000;"/>
   </g>
   <g id="patch_19">
    <path clip-path="url(#pbed307b0b0)" d="
M453.543 99.2126
C457.302 99.2126 460.907 97.7192 463.565 95.0614
C466.223 92.4035 467.717 88.7982 467.717 85.0394
C467.717 81.2806 466.223 77.6752 463.565 75.0174
C460.907 72.3595 457.302 70.8661 453.543 70.8661
C449.785 70.8661 446.179 72.3595 443.521 75.0174
C440.863 77.6752 439.37 81.2806 439.37 85.0394
C439.37 88.7982 440.863 92.4035 443.521 95.0614
C446.179 97.7192 449.785 99.2126 453.543 99.2126
z
" style="fill:none;stroke:#000000;"/>
   </g>
   <g id="patch_20">
    <path clip-path="url(#pbed307b0b0)" d="
M481.89 269.291
C485.649 269.291 489.254 267.798 491.912 265.14
C494.57 262.482 496.063 258.877 496.063 255.118
C496.063 251.359 494.57 247.754 491.912 245.096
C489.254 242.438 485.649 240.945 481.89 240.945
C478.131 240.945 474.526 242.438 471.868 245.096
C469.21 247.754 467.717 251.359 467.717 255.118
C467.717 258.877 469.21 262.482 471.868 265.14
C474.526 267.798 478.131 269.291 481.89 269.291
z
" style="fill:none;stroke:#000000;"/>
   </g>
   <g id="patch_21">
    <path clip-path="url(#pbed307b0b0)" d="
M113.386 99.2126
C117.145 99.2126 120.75 97.7192 123.408 95.0614
C126.066 92.4035 127.559 88.7982 127.559 85.0394
C127.559 81.2806 126.066 77.6752 123.408 75.0174
C120.75 72.3595 117.145 70.8661 113.386 70.8661
C109.627 70.8661 106.022 72.3595 103.364 75.0174
C100.706 77.6752 99.2126 81.2806 99.2126 85.0394
C99.2126 88.7982 100.706 92.4035 103.364 95.0614
C106.022 97.7192 109.627 99.2126 113.386 99.2126
z
" style="fill:none;stroke:#000000;"/>
   </g>
   <g id="patch_22">
    <path clip-path="url(#pbed307b0b0)" d="
M311.811 155.906
C315.57 155.906 319.175 154.412 321.833 151.754
C324.491 149.096 325.984 145.491 325.984 141.732
C325.984 137.973 324.491 134.368 321.833 131.71
C319.175 129.052 315.57 127.559 311.811 127.559
C308.052 127.559 304.447 129.052 301.789 131.71
C299.131 134.368 297.638 137.973 297.638 141.732
C297.638 145.491 299.131 149.096 301.789 151.754
C304.447 154.412 308.052 155.906 311.811 155.906
z
" style="fill:none;stroke:#000000;"/>
   </g>
   <g id="patch_23">
    <path clip-path="url(#pbed307b0b0)" d="
M425.197 155.906
C428.956 155.906 432.561 154.412 435.219 151.754
C437.877 149.096 439.37 145.491 439.37 141.732
C439.37 137.973 437.877 134.368 435.219 131.71
C432.561 129.052 428.956 127.559 425.197 127.559
C421.438 127.559 417.833 129.052 415.175 131.71
C412.517 134.368 411.024 137.973 411.024 141.732
C411.024 145.491 412.517 149.096 415.175 151.754
C417.833 154.412 421.438 155.906 425.197 155.906
z
" style="fill:none;stroke:#000000;"/>
   </g>
   <g id="patch_24">
    <path clip-path="url(#pbed307b0b0)" d="
M283.465 99.2126
C287.223 99.2126 290.829 97.7192 293.487 95.0614
C296.144 92.4035 297.638 88.7982 297.638 85.0394
C297.638 81.2806 296.144 77.6752 293.487 75.0174
C290.829 72.3595 287.223 70.8661 283.465 70.8661
C279.706 70.8661 276.1 72.3595 273.443 75.0174
C270.785 77.6752 269.291 81.2806 269.291 85.0394
C269.291 88.7982 270.785 92.4035 273.443 95.0614
C276.1 97.7192 279.706 99.2126 283.465 99.2126
z
" style="fill:none;stroke:#000000;"/>
   </g>
   <g id="patch_25">
    <path clip-path="url(#pbed307b0b0)" d="
M396.85 99.2126
C400.609 99.2126 404.215 97.7192 406.872 95.0614
C409.53 92.4035 411.024 88.7982 411.024 85.0394
C411.024 81.2806 409.53 77.6752 406.872 75.0174
C404.215 72.3595 400.609 70.8661 396.85 70.8661
C393.092 70.8661 389.486 72.3595 386.828 75.0174
C384.171 77.6752 382.677 81.2806 382.677 85.0394
C382.677 88.7982 384.171 92.4035 386.828 95.0614
C389.486 97.7192 393.092 99.2126 396.85 99.2126
z
" style="fill:none;stroke:#000000;"/>
   </g>
   <g id="patch_26">
    <path clip-path="url(#pbed307b0b0)" d="
M56.6929 99.2126
C60.4517 99.2126 64.057 97.7192 66.7149 95.0614
C69.3728 92.4035 70.8661 88.7982 70.8661 85.0394
C70.8661 81.2806 69.3728 77.6752 66.7149 75.0174
C64.057 72.3595 60.4517 70.8661 56.6929 70.8661
C52.9341 70.8661 49.3288 72.3595 46.6709 75.0174
C44.0131 77.6752 42.5197 81.2806 42.5197 85.0394
C42.5197 88.7982 44.0131 92.4035 46.6709 95.0614
C49.3288 97.7192 52.9341 99.2126 56.6929 99.2126
z
" style="fill:none;stroke:#000000;"/>
   </g>
   <g id="patch_27">
    <path clip-path="url(#pbed307b0b0)" d="
M85.0394 155.906
C88.7982 155.906 92.4035 154.412 95.0614 151.754
C97.7192 149.096 99.2126 145.491 99.2126 141.732
C99.2126 137.973 97.7192 134.368 95.0614 131.71
C92.4035 129.052 88.7982 127.559 85.0394 127.559
C81.2806 127.559 77.6752 129.052 75.0174 131.71
C72.3595 134.368 70.8661 137.973 70.8661 141.732
C70.8661 145.491 72.3595 149.096 75.0174 151.754
C77.6752 154.412 81.2806 155.906 85.0394 155.906
z
" style="fill:none;stroke:#000000;"/>
   </g>
   <g id="patch_28">
    <path clip-path="url(#pbed307b0b0)" d="
M340.157 99.2126
C343.916 99.2126 347.522 97.7192 350.179 95.0614
C352.837 92.4035 354.331 88.7982 354.331 85.0394
C354.331 81.2806 352.837 77.6752 350.179 75.0174
C347.522 72.3595 343.916 70.8661 340.157 70.8661
C336.399 70.8661 332.793 72.3595 330.135 75.0174
C327.478 77.6752 325.984 81.2806 325.984 85.0394
C325.984 88.7982 327.478 92.4035 330.135 95.0614
C332.793 97.7192 336.399 99.2126 340.157 99.2126
z
" style="fill:none;stroke:#000000;"/>
   </g>
   <g id="patch_29">
    <path clip-path="url(#pbed307b0b0)" d="
M481.89 155.906
C485.649 155.906 489.254 154.412 491.912 151.754
C494.57 149.096 496.063 145.491 496.063 141.732
C496.063 137.973 494.57 134.368 491.912 131.71
C489.254 129.052 485.649 127.559 481.89 127.559
C478.131 127.559 474.526 129.052 471.868 131.71
C469.21 134.368 467.717 137.973 467.717 141.732
C467.717 145.491 469.21 149.096 471.868 151.754
C474.526 154.412 478.131 155.906 481.89 155.906
z
" style="fill:none;stroke:#000000;"/>
   </g>
   <g id="patch_30">
    <path clip-path="url(#pbed307b0b0)" d="
M198.425 155.906
C202.184 155.906 205.789 154.412 208.447 151.754
C211.105 149.096 212.598 145.491 212.598 141.732
C212.598 137.973 211.105 134.368 208.447 131.71
C205.789 129.052 202.184 127.559 198.425 127.559
C194.666 127.559 191.061 129.052 188.403 131.71
C185.745 134.368 184.252 137.973 184.252 141.732
C184.252 145.491 185.745 149.096 188.403 151.754
C191.061 154.412 194.666 155.906 198.425 155.906
z
" style="fill:none;stroke:#000000;"/>
   </g>
   <g id="patch_31">
    <path clip-path="url(#pbed307b0b0)" d="
M226.772 99.2126
C230.53 99.2126 234.136 97.7192 236.794 95.0614
C239.452 92.4035 240.945 88.7982 240.945 85.0394
C240.945 81.2806 239.452 77.6752 236.794 75.0174
C234.136 72.3595 230.53 70.8661 226.772 70.8661
C223.013 70.8661 219.408 72.3595 216.75 75.0174
C214.092 77.6752 212.598 81.2806 212.598 85.0394
C212.598 88.7982 214.092 92.4035 216.75 95.0614
C219.408 97.7192 223.013 99.2126 226.772 99.2126
z
" style="fill:none;stroke:#000000;"/>
   </g>
   <g id="patch_32">
    <path clip-path="url(#pbed307b0b0)" d="
M255.118 240.945
C258.877 240.945 262.482 239.452 265.14 236.794
C267.798 234.136 269.291 230.53 269.291 226.772
C269.291 223.013 267.798 219.408 265.14 216.75
C262.482 214.092 258.877 212.598 255.118 212.598
C251.359 212.598 247.754 214.092 245.096 216.75
C242.438 219.408 240.945 223.013 240.945 226.772
C240.945 230.53 242.438 234.136 245.096 236.794
C247.754 239.452 251.359 240.945 255.118 240.945
z
" style="fill:#b2b2b2;stroke:#000000;"/>
   </g>
   <g id="patch_33">
    <path clip-path="url(#pbed307b0b0)" d="
M255.118 240.945
C258.877 240.945 262.482 239.452 265.14 236.794
C267.798 234.136 269.291 230.53 269.291 226.772
C269.291 223.013 267.798 219.408 265.14 216.75
C262.482 214.092 258.877 212.598 255.118 212.598
C251.359 212.598 247.754 214.092 245.096 216.75
C242.438 219.408 240.945 223.013 240.945 226.772
C240.945 230.53 242.438 234.136 245.096 236.794
C247.754 239.452 251.359 240.945 255.118 240.945
z
" style="fill:none;stroke:#000000;"/>
   </g>
   <g id="patch_34">
    <path clip-path="url(#pbed307b0b0)" d="
M481.89 212.598
C485.649 212.598 489.254 211.105 491.912 208.447
C494.57 205.789 496.063 202.184 496.063 198.425
C496.063 194.666 494.57 191.061 491.912 188.403
C489.254 185.745 485.649 184.252 481.89 184.252
C478.131 184.252 474.526 185.745 471.868 188.403
C469.21 191.061 467.717 194.666 467.717 198.425
C467.717 202.184 469.21 205.789 471.868 208.447
C474.526 211.105 478.131 212.598 481.89 212.598
z
" style="fill:none;stroke:#000000;"/>
   </g>
   <g id="patch_35">
    <path clip-path="url(#pbed307b0b0)" d="
M170.079 99.2126
C173.838 99.2126 177.443 97.7192 180.101 95.0614
C182.759 92.4035 184.252 88.7982 184.252 85.0394
C184.252 81.2806 182.759 77.6752 180.101 75.0174
C177.443 72.3595 173.838 70.8661 170.079 70.8661
C166.32 70.8661 162.715 72.3595 160.057 75.0174
C157.399 77.6752 155.906 81.2806 155.906 85.0394
C155.906 88.7982 157.399 92.4035 160.057 95.0614
C162.715 97.7192 166.32 99.2126 170.079 99.2126
z
" style="fill:none;stroke:#000000;"/>
   </g>
   <g id="matplotlib.axis_1"/>
   <g id="matplotlib.axis_2"/>
   <g id="text_1">
    <!-- $j = 1, \dots, N$ -->
    <defs>
     <path d="
M74 57.7031
C75.0938 62 76.7031 65 84.2969 65
C84.5938 65 85.7969 65.0938 85.7969 66.8594
C85.7969 68 84.9062 68 84.5 68
C82.5 68 77.4062 68 75.4062 68
L70.5938 68
C69.2031 68 67.4062 68 66 68
C65.4062 68 64.2031 68 64.2031 66.0312
C64.2031 65 65 65 65.7031 65
C71.7031 65 72.0938 62.7031 72.0938 60.9062
C72.0938 60.0156 72 59.7031 71.7031 58.3125
L60.4062 13.2812
L39 66.2969
C38.2969 67.9062 38.2031 68 36 68
L23.7969 68
C21.7969 68 20.9062 68 20.9062 66.0312
C20.9062 65 21.5938 65 23.5 65
C24 65 29.9062 65 29.9062 64.0938
C29.9062 63.8906 29.7031 63.0938 29.5938 62.7969
L16.2969 9.89062
C15.0938 5 12.7031 2.90625 6.09375 2.90625
C5.59375 2.90625 4.59375 2.8125 4.59375 1
C4.59375 0 5.59375 0 5.90625 0
C7.90625 0 13 0 15 0
L19.7969 0
C21.2031 0 22.9062 0 24.2969 0
C25 0 26.0938 0 26.0938 1.90625
C26.0938 2.8125 25.0938 2.90625 24.7031 2.90625
C21.4062 2.90625 18.2031 3.5 18.2031 7.09375
C18.2031 7.89062 18.4062 8.78125 18.5938 9.57812
L32.0938 62.9688
C32.7031 61.9688 32.7031 61.7812 33.0938 60.875
L56.9062 1.73438
C57.4062 0.578125 57.5938 0 58.5 0
C59.5 0 59.5938 0.296875 60 2
z
" id="CMMI12-78"/>
     <path d="
M35 31.6875
C35.4062 33.2969 35.4062 34.6719 35.4062 35.0781
C35.4062 40.8281 31.0938 44 26.5938 44
C16.5 44 11.0938 29.5156 11.0938 28.8281
C11.0938 28.3281 11.5 27.9375 12.0938 27.9375
C12.9062 27.9375 13 28.3281 13.5 29.3125
C17.5 38.9375 22.5 42.0156 26.2969 42.0156
C28.4062 42.0156 29.5 40.9062 29.5 37.4531
C29.5 35.0781 29.2031 34.0781 28.7969 32.2969
L19.2969 -5.10938
C17.4062 -12.4375 12.7031 -18 7.20312 -18
C6.79688 -18 4.70312 -18 2.79688 -17
C5.20312 -16.5 7.09375 -14.625 7.09375 -12.25
C7.09375 -10.6562 5.90625 -9.0625 3.70312 -9.0625
C1.09375 -9.0625 -1.29688 -11.25 -1.29688 -14.2344
C-1.29688 -18.2969 3.09375 -20 7.20312 -20
C14.0938 -20 23.2031 -14.9375 25.7031 -5
z

M39.0938 62.7031
C39.0938 65.2031 37 66 35.7969 66
C33.0938 66 30.7969 63.4062 30.7969 61.2031
C30.7969 59.7188 32 57.9219 34.2031 57.9219
C36.5 57.9219 39.0938 60.1094 39.0938 62.7031" id="CMMI12-106"/>
     <path d="
M64.2969 31.5156
C65.7969 31.5156 67.2969 31.5156 67.2969 33.2031
C67.2969 35 65.5938 35 63.9062 35
L8 35
C6.29688 35 4.59375 35 4.59375 33.2031
C4.59375 31.5156 6.09375 31.5156 7.59375 31.5156
z

M63.9062 14
C65.5938 14 67.2969 14 67.2969 15.7969
C67.2969 17.4844 65.7969 17.4844 64.2969 17.4844
L7.59375 17.4844
C6.09375 17.4844 4.59375 17.4844 4.59375 15.7969
C4.59375 14 6.29688 14 8 14
z
" id="CMR17-61"/>
     <path d="
M26.5938 63.3125
C26.5938 65.4062 26.5 65.5 25.0938 65.5
C21.2031 61.1875 15.2969 59.7969 9.70312 59.7969
C9.40625 59.7969 8.90625 59.7969 8.79688 59.5
C8.70312 59.2969 8.70312 59.0938 8.70312 57
C11.7969 57 17 57.5938 21 59.9844
L21 7.20312
C21 3.6875 20.7969 2.5 12.2031 2.5
L9.20312 2.5
L9.20312 0
C14 0 19 0 23.7969 0
C28.5938 0 33.5938 0 38.4062 0
L38.4062 2.5
L35.4062 2.5
C26.7969 2.5 26.5938 3.59375 26.5938 7.15625
z
" id="CMR17-49"/>
     <path d="
M18.4062 4.79688
C18.4062 7.6875 16 9.67188 13.5938 9.67188
C10.7031 9.67188 8.70312 7.28125 8.70312 4.89062
C8.70312 2 11.0938 0 13.5 0
C16.4062 0 18.4062 2.39062 18.4062 4.79688" id="CMMI12-58"/>
     <path d="
M19.5 -0.484375
C19.5 5.35938 17.5938 9.67188 13.5 9.67188
C10.2969 9.67188 8.70312 7.07812 8.70312 4.89062
C8.70312 2.6875 10.2031 0 13.5938 0
C14.9062 0 16 0.40625 16.9062 1.29688
C17.0938 1.5 17.2031 1.5 17.2969 1.5
C17.5 1.5 17.5 0.078125 17.5 -0.421875
C17.5 -3.75 16.9062 -10.2969 11.0938 -16.875
C10 -18.0781 10 -18.2812 10 -18.4844
C10 -19 10.5 -19.5 11 -19.5
C11.7969 -19.5 19.5 -12.0469 19.5 -0.484375" id="CMMI12-59"/>
    </defs>
    <g transform="translate(61.6929133858 266.615934337)scale(0.12 -0.12)">
     <use transform="translate(0.0 19.3717224957)scale(0.996264009963)" xlink:href="#CMMI12-106"/>
     <use transform="translate(73.6364913313 19.3717224957)scale(0.996264009963)" xlink:href="#CMR17-61"/>
     <use transform="translate(173.025288469 19.3717224957)scale(0.996264009963)" xlink:href="#CMR17-49"/>
     <use transform="translate(218.715765586 19.3717224957)scale(0.996264009963)" xlink:href="#CMMI12-59"/>
     <use transform="translate(262.417347909 19.3717224957)scale(0.996264009963)" xlink:href="#CMMI12-58"/>
     <use transform="translate(306.118930232 19.3717224957)scale(0.996264009963)" xlink:href="#CMMI12-58"/>
     <use transform="translate(349.820512555 19.3717224957)scale(0.996264009963)" xlink:href="#CMMI12-58"/>
     <use transform="translate(393.522094879 19.3717224957)scale(0.996264009963)" xlink:href="#CMMI12-59"/>
     <use transform="translate(437.223677202 19.3717224957)scale(0.996264009963)" xlink:href="#CMMI12-78"/>
    </g>
   </g>
   <g id="text_2">
    <!-- $i = 1, \dots, S_j$ -->
    <defs>
     <path d="
M63.5 69.1094
C63.5 70 62.7969 70 62.5938 70
C62.2031 70 62.0938 69.9062 60.9062 68.4062
C60.2969 67.7031 56.2031 62.5156 56.0938 62.4219
C52.7969 68.9062 46.2031 70 42 70
C29.2969 70 17.7969 58.4844 17.7969 47.2656
C17.7969 39.8281 22.2969 35.4531 27.2031 33.7656
C28.2969 33.3594 34.2031 31.7656 37.2031 31.0781
C42.2969 29.6875 43.5938 29.2969 45.7031 27.1094
C46.0938 26.6094 48.0938 24.3281 48.0938 19.6562
C48.0938 10.4219 39.5 0.890625 29.5 0.890625
C21.2969 0.890625 12.2031 4.375 12.2031 15.5
C12.2031 17.375 12.5938 19.7656 12.9062 20.75
C12.9062 21.0625 13 21.5469 13 21.7344
C13 22.1406 12.7969 22.6406 12 22.6406
C11.0938 22.6406 11 22.4375 10.5938 20.75
L5.5 0.390625
C5.5 0.296875 5.09375 -1 5.09375 -1.10938
C5.09375 -2 5.90625 -2 6.09375 -2
C6.5 -2 6.59375 -1.90625 7.79688 -0.40625
L12.4062 5.5625
C14.7969 1.96875 20 -2 29.2969 -2
C42.2031 -2 54 10.4062 54 22.8125
C54 27 53 30.6719 49.2031 34.3281
C47.0938 36.4219 45.2969 36.9219 36.0938 39.3125
C29.4062 41.0938 28.5 41.3906 26.7031 42.9844
C25 44.6562 23.7031 47.0469 23.7031 50.4219
C23.7031 58.7656 32.2031 67.3125 41.7031 67.3125
C51.5 67.3125 56.0938 61.3438 56.0938 51.9219
C56.0938 49.3438 55.5938 46.6562 55.5938 46.2656
C55.5938 45.3594 56.4062 45.3594 56.7031 45.3594
C57.5938 45.3594 57.7031 45.6562 58.0938 47.25
z
" id="CMMI12-83"/>
     <path d="
M28.2969 14.2656
C28.2969 14.7656 27.9062 15.1719 27.2969 15.1719
C26.4062 15.1719 26.2969 14.875 25.7969 13.1719
C23.2031 4.09375 19.0938 1 15.7969 1
C14.5938 1 13.2031 1.29688 13.2031 4.29688
C13.2031 6.98438 14.4062 9.98438 15.5 12.9688
L22.5 31.5312
C22.7969 32.3281 23.5 34.125 23.5 36.0156
C23.5 40.2188 20.5 44 15.5938 44
C6.40625 44 2.70312 29.5312 2.70312 28.7344
C2.70312 28.3438 3.09375 27.8438 3.79688 27.8438
C4.70312 27.8438 4.79688 28.2344 5.20312 29.625
C7.59375 37.9375 11.4062 41.9062 15.2969 41.9062
C16.2031 41.9062 17.9062 41.9062 17.9062 38.7188
C17.9062 36.125 16.5938 32.8281 15.7969 30.6406
L8.79688 12.0781
C8.20312 10.4844 7.59375 8.875 7.59375 7.07812
C7.59375 2.59375 10.7031 -1 15.5 -1
C24.7031 -1 28.2969 13.5781 28.2969 14.2656
M27.5 62.7031
C27.5 64.2031 26.2969 66 24.0938 66
C21.7969 66 19.2031 63.7969 19.2031 61.2031
C19.2031 58.7188 21.2969 57.9219 22.5 57.9219
C25.2031 57.9219 27.5 60.5156 27.5 62.7031" id="CMMI12-105"/>
    </defs>
    <g transform="translate(217.598425197 257.337147279)scale(0.12 -0.12)">
     <use transform="translate(0.0 28.5040564436)scale(0.996264009963)" xlink:href="#CMMI12-105"/>
     <use transform="translate(60.9526105717 28.5040564436)scale(0.996264009963)" xlink:href="#CMR17-61"/>
     <use transform="translate(160.341407709 28.5040564436)scale(0.996264009963)" xlink:href="#CMR17-49"/>
     <use transform="translate(206.031884826 28.5040564436)scale(0.996264009963)" xlink:href="#CMMI12-59"/>
     <use transform="translate(249.73346715 28.5040564436)scale(0.996264009963)" xlink:href="#CMMI12-58"/>
     <use transform="translate(293.435049473 28.5040564436)scale(0.996264009963)" xlink:href="#CMMI12-58"/>
     <use transform="translate(337.136631796 28.5040564436)scale(0.996264009963)" xlink:href="#CMMI12-58"/>
     <use transform="translate(380.838214119 28.5040564436)scale(0.996264009963)" xlink:href="#CMMI12-59"/>
     <use transform="translate(424.539796442 28.5040564436)scale(0.996264009963)" xlink:href="#CMMI12-83"/>
     <use transform="translate(484.534284276 13.5601418995)scale(0.697381766617)" xlink:href="#CMMI12-106"/>
    </g>
   </g>
   <g id="text_3">
    <!-- $\sigma_t$ -->
    <defs>
     <path d="
M50.7969 37.6094
C52.0938 37.6094 55.4062 37.6094 55.4062 40.7969
C55.4062 43 53.5 43 51.7031 43
L29.5938 43
C14.5938 43 3.79688 26.3281 3.79688 14.5625
C3.79688 6.09375 9.29688 -1 18.2969 -1
C30.0938 -1 43 11.6719 43 26.625
C43 30.5156 42.0938 34.3125 39.7031 37.6094
z

M18.4062 1
C13.2969 1 9.59375 4.89062 9.59375 11.7812
C9.59375 17.7656 13.2031 37.6094 27.9062 37.6094
C32.2031 37.6094 37 35.5156 37 27.8281
C37 24.3281 35.4062 15.9688 31.9062 10.1719
C28.2969 4.29688 22.9062 1 18.4062 1" id="CMMI12-27"/>
     <path d="
M20.0938 40.0938
L29.2969 40.0938
C31.2031 40.0938 32.2031 40.0938 32.2031 41.8906
C32.2031 43 31.5938 43 29.5938 43
L20.7969 43
L24.5 57.6875
C24.9062 59.0781 24.9062 59.2812 24.9062 60
C24.9062 61.6094 23.5938 62.5 22.2969 62.5
C21.5 62.5 19.2031 62.2031 18.4062 58.9844
L14.5 43
L5.09375 43
C3.09375 43 2.20312 43 2.20312 41.0938
C2.20312 40.0938 2.90625 40.0938 4.79688 40.0938
L13.7031 40.0938
L7.09375 13.7656
C6.29688 10.2812 6 9.28125 6 7.98438
C6 3.29688 9.29688 -1 14.9062 -1
C25 -1 30.4062 13.5781 30.4062 14.2656
C30.4062 14.875 30 15.1719 29.4062 15.1719
C29.2031 15.1719 28.7969 15.1719 28.5938 14.7656
C28.5 14.6719 28.4062 14.5625 27.7031 12.9688
C25.5938 7.98438 21 1 15.2031 1
C12.2031 1 12 3.5 12 5.6875
C12 5.78125 12 7.6875 12.2969 8.875
z
" id="CMMI12-116"/>
    </defs>
    <g transform="translate(448.687568961 88.5096861664)scale(0.12 -0.12)">
     <use transform="translate(0.0 14.9439145441)scale(0.996264009963)" xlink:href="#CMMI12-27"/>
     <use transform="translate(55.4454608694 0.0)scale(0.697381766617)" xlink:href="#CMMI12-116"/>
    </g>
   </g>
   <g id="text_4">
    <!-- $sz$ -->
    <defs>
     <path d="
M22.7969 20
C24.5 19.7031 27.2031 19.1094 27.7969 19
C29.0938 18.625 33.5938 17.0312 33.5938 12.2344
C33.5938 9.15625 30.7969 1.09375 19.2031 1.09375
C17.0938 1.09375 9.59375 1.09375 7.59375 6.8125
C11.5938 6.3125 13.5938 9.42188 13.5938 11.6406
C13.5938 13.75 12.2031 14.8438 10.2031 14.8438
C8 14.8438 5.09375 13.1406 5.09375 8.625
C5.09375 2.70312 11.0938 -1 19.0938 -1
C34.2969 -1 38.7969 10.1719 38.7969 15.375
C38.7969 16.8594 38.7969 19.6562 35.5938 22.8438
C33.0938 25.25 30.7031 25.75 25.2969 26.8438
C22.5938 27.4375 18.2969 28.3438 18.2969 32.8281
C18.2969 34.8281 20.0938 42.0156 29.5938 42.0156
C33.7969 42.0156 37.9062 40.4531 38.9062 37
C34.5 37 34.2969 33.2031 34.2969 33.1094
C34.2969 31 36.2031 30.4062 37.0938 30.4062
C38.5 30.4062 41.2969 31.4844 41.2969 35.6406
C41.2969 39.7656 37.5 44 29.7031 44
C16.5938 44 13.0938 33.75 13.0938 29.6719
C13.0938 22.0938 20.5 20.5 22.7969 20" id="CMMI12-115"/>
     <path d="
M12.7031 7.59375
C17 12.5469 20.5 15.6875 25.5 20.25
C31.5 25.5 34.0938 28.0156 35.5 29.5469
C42.5 36.5312 46 42.3906 46 43.1875
C46 44 45.2031 44 45 44
C44.2969 44 44.0938 43.6406 43.5938 42.9688
C41.0938 38.9688 38.7031 36.9844 36.0938 36.9844
C34 36.9844 32.9062 37.8281 31 40.0781
C28.9062 42.4219 27.2031 44 24.2969 44
C17 44 12.5938 35.2031 12.5938 33.1719
C12.5938 32.8906 12.7031 32.3125 13.5938 32.3125
C14.4062 32.3125 14.5 32.6719 14.7969 33.3281
C16.5 37.0625 21.2969 37.7188 23.2031 37.7188
C25.2969 37.7188 27.2969 37.125 29.4062 36.3594
C33.2031 35 34.7969 35 35.7969 35
C36.5 35 36.9062 35 37.4062 35.0938
C34.0938 31.1562 28.7031 26.2969 24.2031 22.1562
L14.0938 12.75
C8 6.48438 4.29688 0.515625 4.29688 -0.1875
C4.29688 -0.796875 4.79688 -1 5.40625 -1
C6 -1 6.09375 -0.890625 6.79688 0.21875
C8.40625 2.54688 11.5938 6 15.2969 6
C17.4062 6 18.4062 5.34375 20.4062 3.01562
C22.2969 0.953125 24 -1 27.2031 -1
C37 -1 42.5938 11.4688 42.5938 13.7344
C42.5938 14.1406 42.5 14.7188 41.5 14.7188
C40.7031 14.7188 40.5938 14.3281 40.2969 13.3594
C38.0938 7.625 32.2031 5.28125 28.2969 5.28125
C26.2031 5.28125 24.2031 5.875 22.0938 6.64062
C18.0938 8 17 8 15.7031 8
C14.7031 8 13.5938 8 12.7031 7.59375" id="CMMI12-122"/>
    </defs>
    <g transform="translate(476.413815736 257.691794796)scale(0.12 -0.12)">
     <use transform="scale(0.996264009963)" xlink:href="#CMMI12-115"/>
     <use transform="translate(45.9500475512 0.0)scale(0.996264009963)" xlink:href="#CMMI12-122"/>
    </g>
   </g>
   <g id="text_5">
    <!-- $\sigma_v$ -->
    <defs>
     <path d="
M45.7031 37.3281
C45.7031 43.6094 42.5 44 41.7031 44
C39.2969 44 37.0938 41.6094 37.0938 39.6094
C37.0938 38.4219 37.7969 37.7188 38.2031 37.3281
C39.2031 36.4219 41.7969 33.7344 41.7969 28.5469
C41.7969 24.3438 35.7969 1 23.7969 1
C17.7031 1 16.5 6.09375 16.5 9.78125
C16.5 14.7656 18.7969 21.75 21.5 28.9375
C23.0938 33.0312 23.5 34.0312 23.5 36.0156
C23.5 40.2188 20.5 44 15.5938 44
C6.40625 44 2.70312 29.5312 2.70312 28.7344
C2.70312 28.3438 3.09375 27.8438 3.79688 27.8438
C4.70312 27.8438 4.79688 28.2344 5.20312 29.6406
C7.59375 38.2188 11.5 42.0156 15.2969 42.0156
C16.2031 42.0156 17.9062 42.0156 17.9062 38.7188
C17.9062 36.125 16.7969 33.2344 15.2969 29.4375
C10.5 16.6719 10.5 13.5781 10.5 11.1719
C10.5 8.98438 10.7969 4.89062 13.9062 2.09375
C17.5 -1 22.5 -1 23.4062 -1
C40 -1 45.7031 31.625 45.7031 37.3281" id="CMMI12-118"/>
    </defs>
    <g transform="translate(107.997357384 88.5096861664)scale(0.12 -0.12)">
     <use transform="translate(0.0 14.9439145441)scale(0.996264009963)" xlink:href="#CMMI12-27"/>
     <use transform="translate(55.4454608694 0.0)scale(0.697381766617)" xlink:href="#CMMI12-118"/>
    </g>
   </g>
   <g id="text_6">
    <!-- $z_j$ -->
    <g transform="translate(307.379734462 145.977472404)scale(0.12 -0.12)">
     <use transform="translate(0.0 28.5040564436)scale(0.996264009963)" xlink:href="#CMMI12-122"/>
     <use transform="translate(45.3157531814 13.5601418995)scale(0.697381766617)" xlink:href="#CMMI12-106"/>
    </g>
   </g>
   <g id="text_7">
    <!-- $t_j$ -->
    <g transform="translate(421.370926612 147.08048333)scale(0.12 -0.12)">
     <use transform="translate(0.0 28.5040564436)scale(0.996264009963)" xlink:href="#CMMI12-116"/>
     <use transform="translate(35.2263302168 13.5601418995)scale(0.697381766617)" xlink:href="#CMMI12-106"/>
    </g>
   </g>
   <g id="text_8">
    <!-- $\mu_z$ -->
    <defs>
     <path d="
M14.4062 2.20312
C16.9062 -0.09375 20.5938 -1 24 -1
C30.4062 -1 34.7969 3.29688 37.0938 6.39062
C38.0938 1.09375 42.2969 -1 45.7969 -1
C48.7969 -1 51.2031 0.796875 53 4.39062
C54.5938 7.78125 56 13.875 56 14.2656
C56 14.7656 55.5938 15.1719 55 15.1719
C54.0938 15.1719 54 14.6719 53.5938 13.1719
C52.0938 7.28125 50.2031 1 46.0938 1
C43.2031 1 43 3.59375 43 5.59375
C43 7.89062 43.9062 11.4688 44.5938 14.4688
L47.4062 25.25
C47.7969 27.1406 48.9062 31.625 49.4062 33.4219
C50 35.8281 51.0938 40.1094 51.0938 40.5156
C51.0938 42.0156 49.9062 43.0156 48.4062 43.0156
C47.5 43.0156 45.4062 42.6094 44.5938 39.6094
L37.5938 11.875
C37.0938 9.875 37.0938 9.67188 35.7969 8.07812
C34.5938 6.39062 30.7031 1 24.4062 1
C18.7969 1 17 5.09375 17 9.78125
C17 12.6719 17.9062 16.1719 18.2969 17.8594
L22.7969 35.8281
C23.2969 37.7188 24.0938 40.9062 24.0938 41.5156
C24.0938 43.1094 22.7969 44 21.5 44
C20.5938 44 18.4062 43.7031 17.5938 40.5156
L3.09375 -17.3125
C3 -17.8125 2.79688 -18.4062 2.79688 -19
C2.79688 -20.5 4 -21.5 5.5 -21.5
C8.40625 -21.5 9 -19.2031 9.70312 -16.3906
z
" id="CMMI12-22"/>
    </defs>
    <g transform="translate(277.973591923 88.7753525152)scale(0.12 -0.12)">
     <use transform="translate(0.0 19.3717224957)scale(0.996264009963)" xlink:href="#CMMI12-22"/>
     <use transform="translate(58.6914214518 4.42780795163)scale(0.697381766617)" xlink:href="#CMMI12-122"/>
    </g>
   </g>
   <g id="text_9">
    <!-- $\mu_t$ -->
    <g transform="translate(391.79989794 88.7753525152)scale(0.12 -0.12)">
     <use transform="translate(0.0 19.3717224957)scale(0.996264009963)" xlink:href="#CMMI12-22"/>
     <use transform="translate(58.6914214518 4.42780795163)scale(0.697381766617)" xlink:href="#CMMI12-116"/>
    </g>
   </g>
   <g id="text_10">
    <!-- $\mu_v$ -->
    <g transform="translate(51.1096863636 88.7753525152)scale(0.12 -0.12)">
     <use transform="translate(0.0 19.3717224957)scale(0.996264009963)" xlink:href="#CMMI12-22"/>
     <use transform="translate(58.6914214518 4.42780795163)scale(0.697381766617)" xlink:href="#CMMI12-118"/>
    </g>
   </g>
   <g id="text_11">
    <!-- $v_j$ -->
    <g transform="translate(80.4973967415 145.977472404)scale(0.12 -0.12)">
     <use transform="translate(0.0 28.5040564436)scale(0.996264009963)" xlink:href="#CMMI12-118"/>
     <use transform="translate(47.1605806838 13.5601418995)scale(0.697381766617)" xlink:href="#CMMI12-106"/>
    </g>
   </g>
   <g id="text_12">
    <!-- $\sigma_z$ -->
    <g transform="translate(334.861262944 88.5096861664)scale(0.12 -0.12)">
     <use transform="translate(0.0 14.9439145441)scale(0.996264009963)" xlink:href="#CMMI12-27"/>
     <use transform="translate(55.4454608694 0.0)scale(0.697381766617)" xlink:href="#CMMI12-122"/>
    </g>
   </g>
   <g id="text_13">
    <!-- $sv$ -->
    <g transform="translate(476.303131558 144.305968024)scale(0.12 -0.12)">
     <use transform="scale(0.996264009963)" xlink:href="#CMMI12-115"/>
     <use transform="translate(45.9500475512 0.0)scale(0.996264009963)" xlink:href="#CMMI12-118"/>
    </g>
   </g>
   <g id="text_14">
    <!-- $a_j$ -->
    <defs>
     <path d="
M30.0938 11.875
C29.5938 10.1719 29.5938 9.98438 28.2031 8.07812
C26 5.28125 21.5938 1 16.9062 1
C12.7969 1 10.5 4.6875 10.5 10.5781
C10.5 16.0625 13.5938 27.2344 15.5 31.4375
C18.9062 38.4219 23.5938 42.0156 27.5 42.0156
C34.0938 42.0156 35.4062 33.8281 35.4062 33.0312
C35.4062 32.9375 35.0938 31.625 35 31.4375
z

M36.5 37.4219
C35.4062 40.0156 32.7031 44 27.5 44
C16.2031 44 4 29.4375 4 14.6719
C4 4.79688 9.79688 -1 16.5938 -1
C22.0938 -1 26.7969 3.29688 29.5938 6.59375
C30.5938 0.703125 35.2969 -1 38.2969 -1
C41.2969 -1 43.7031 0.796875 45.5 4.39062
C47.0938 7.78125 48.5 13.875 48.5 14.2656
C48.5 14.7656 48.0938 15.1719 47.5 15.1719
C46.5938 15.1719 46.5 14.6719 46.0938 13.1719
C44.5938 7.28125 42.7031 1 38.5938 1
C35.7031 1 35.5 3.59375 35.5 5.59375
C35.5 7.89062 35.7969 8.98438 36.7031 12.875
C37.4062 15.375 37.9062 17.5625 38.7031 20.4531
C42.4062 35.4219 43.2969 39.0156 43.2969 39.6094
C43.2969 41.0156 42.2031 42.1094 40.7031 42.1094
C37.5 42.1094 36.7031 38.625 36.5 37.4219" id="CMMI12-97"/>
    </defs>
    <g transform="translate(193.64038264 145.977472404)scale(0.12 -0.12)">
     <use transform="translate(0.0 28.5040564436)scale(0.996264009963)" xlink:href="#CMMI12-97"/>
     <use transform="translate(51.2078576189 13.5601418995)scale(0.697381766617)" xlink:href="#CMMI12-106"/>
    </g>
   </g>
   <g id="text_15">
    <!-- $\sigma_a$ -->
    <g transform="translate(221.195921 88.5096861664)scale(0.12 -0.12)">
     <use transform="translate(0.0 14.9439145441)scale(0.996264009963)" xlink:href="#CMMI12-27"/>
     <use transform="translate(55.4454608694 0.0)scale(0.697381766617)" xlink:href="#CMMI12-97"/>
    </g>
   </g>
   <g id="text_16">
    <!-- $x_{i,j}$ -->
    <defs>
     <path d="
M47.4062 40.7188
C44.2031 40.1094 43 37.7188 43 35.8281
C43 33.4219 44.9062 32.625 46.2969 32.625
C49.2969 32.625 51.4062 35.2188 51.4062 37.9219
C51.4062 42.1094 46.5938 44 42.4062 44
C36.2969 44 32.9062 38.0156 32 36.125
C29.7031 44 23.5 44 21.7031 44
C11.5 44 6.09375 30.9375 6.09375 28.7344
C6.09375 28.3438 6.5 27.8438 7.20312 27.8438
C8 27.8438 8.20312 28.4375 8.40625 28.8438
C11.7969 39.9219 18.5 42.0156 21.4062 42.0156
C25.9062 42.0156 26.7969 37.8125 26.7969 35.4219
C26.7969 33.2344 26.2031 30.9375 25 26.1406
L21.5938 12.4688
C20.0938 6.48438 17.2031 1 11.9062 1
C11.4062 1 8.90625 1 6.79688 2.29688
C10.4062 3 11.2031 5.98438 11.2031 7.1875
C11.2031 9.1875 9.70312 10.375 7.79688 10.375
C5.40625 10.375 2.79688 8.28125 2.79688 5.09375
C2.79688 0.890625 7.5 -1 11.7969 -1
C16.5938 -1 20 2.79688 22.0938 6.89062
C23.7031 1 28.7031 -1 32.4062 -1
C42.5938 -1 48 12.0781 48 14.2656
C48 14.7656 47.5938 15.1719 47 15.1719
C46.0938 15.1719 46 14.6719 45.7031 13.875
C43 5.09375 37.2031 1 32.7031 1
C29.2031 1 27.2969 3.59375 27.2969 7.6875
C27.2969 9.875 27.7031 11.4688 29.2969 18.0625
L32.7969 31.625
C34.2969 37.625 37.7031 42.0156 42.2969 42.0156
C42.5 42.0156 45.2969 42.0156 47.4062 40.7188" id="CMMI12-120"/>
    </defs>
    <g transform="translate(247.461990972 231.016842483)scale(0.12 -0.12)">
     <use transform="translate(0.0 28.5040564436)scale(0.996264009963)" xlink:href="#CMMI12-120"/>
     <use transform="translate(55.4340595326 13.5601418995)scale(0.697381766617)" xlink:href="#CMMI12-105"/>
     <use transform="translate(78.7289668139 13.5601418995)scale(0.697381766617)" xlink:href="#CMMI12-59"/>
     <use transform="translate(97.6968995661 13.5601418995)scale(0.697381766617)" xlink:href="#CMMI12-106"/>
    </g>
   </g>
   <g id="text_17">
    <!-- $st$ -->
    <g transform="translate(477.019181113 202.101892336)scale(0.12 -0.12)">
     <use transform="scale(0.996264009963)" xlink:href="#CMMI12-115"/>
     <use transform="translate(45.9500475512 0.0)scale(0.996264009963)" xlink:href="#CMMI12-116"/>
    </g>
   </g>
   <g id="text_18">
    <!-- $\mu_a$ -->
    <g transform="translate(164.308249979 88.7753525152)scale(0.12 -0.12)">
     <use transform="translate(0.0 19.3717224957)scale(0.996264009963)" xlink:href="#CMMI12-22"/>
     <use transform="translate(58.6914214518 4.42780795163)scale(0.697381766617)" xlink:href="#CMMI12-97"/>
    </g>
   </g>
  </g>
 </g>
 <defs>
  <clipPath id="pbed307b0b0">
   <rect height="311.811023622" width="771.023622047" x="0.0" y="0.0"/>
  </clipPath>
 </defs>
</svg>
